<svg id="Soccer-Field--Streamline-Ultimate" xmlns="http://www.w3.org/2000/svg" viewBox="0 0 24 24" height="24" width="24">
  <desc>
    Soccer Field Streamline Icon: https://streamlinehq.com
  </desc>
  <title>soccer-field</title>
  <path d="M2 4.5h20s1 0 1 1v13s0 1 -1 1H2s-1 0 -1 -1v-13s0 -1 1 -1" fill="none" stroke="#000000" stroke-linecap="round" stroke-linejoin="round" stroke-width="1"></path>
  <path d="M1 7.5h3a1 1 0 0 1 1 1v7a1 1 0 0 1 -1 1H1" fill="none" stroke="#000000" stroke-linecap="round" stroke-linejoin="round" stroke-width="1"></path>
  <path d="M23 16.5h-3a1 1 0 0 1 -1 -1v-7a1 1 0 0 1 1 -1h3" fill="none" stroke="#000000" stroke-linecap="round" stroke-linejoin="round" stroke-width="1"></path>
  <path d="m12 4.5 0 15" fill="none" stroke="#000000" stroke-linecap="round" stroke-linejoin="round" stroke-width="1"></path>
  <path d="M9 12a3 3 0 1 0 6 0 3 3 0 1 0 -6 0" fill="none" stroke="#000000" stroke-linecap="round" stroke-linejoin="round" stroke-width="1"></path>
</svg>